# xmcd
# Copyright (C) 1995-1998 Ti Kan
#
# Track frame offsets:
#       150
#       22800
#       45332
#       69375
#       93225
#       113025
#       142650
#       163650
#       181800
#       214875
#
# Disc length: 3142 seconds
#
# Revision: 0
# Processed by: cddbd v1.4PL0 Copyright (c) Steve Scherf et al.
# Submitted via: CD-Transfer v1.0
#
DISCID=740c440a
DTITLE=So What - Girls Won No. Jaz?
DYEAR=1999
DGENRE=
TTITLE0=Believe In All
TTITLE1=Touch Me
TTITLE2=I Don't Look Like That
TTITLE3=I Am For Business
TTITLE4=Visions Of Love
TTITLE5=The Future Is For You
TTITLE6=Call Of The Colors
TTITLE7=Never Make It Wrong
TTITLE8=Old Womans Wisdom
TTITLE9=Girls Won No. Jaz?
EXTD=
EXTT0=
EXTT1=
EXTT2=
EXTT3=
EXTT4=
EXTT5=
EXTT6=
EXTT7=
EXTT8=
EXTT9=
PLAYORDER=
